<svg width="128" height="128" viewBox="0 0 128 128" fill="none" xmlns="http://www.w3.org/2000/svg">
<path fill-rule="evenodd" clip-rule="evenodd" d="M117.818 117.818C107.636 128 92.0443 128 64 128C35.9557 128 20.3643 128 10.1821 117.818C0 107.636 0 92.0443 0 64C0 35.9557 0 20.3643 10.1821 10.1821C20.3643 -4.76837e-06 35.9557 0 64 0C92.0443 0 107.636 -4.76837e-06 117.818 10.1821C128 20.3643 128 35.9557 128 64C128 92.0443 128 107.636 117.818 117.818Z" fill="url(#paint0_linear_19509_44780)"/>
<path fill-rule="evenodd" clip-rule="evenodd" d="M64.2656 18.0088C64.2888 18.0105 64.3119 18.0124 64.335 18.0146C64.4135 18.0224 64.4924 18.0327 64.5713 18.0469C64.5873 18.0497 64.6032 18.0535 64.6191 18.0566C64.6418 18.0611 64.6648 18.0644 64.6875 18.0693C71.7067 19.61 79.3672 21.7992 86.002 24.1406C92.5239 26.4422 98.4119 29.0123 101.62 31.4092C102.462 32.0386 102.806 32.9354 102.912 33.2119C103.081 33.652 103.208 34.1343 103.308 34.5898C103.51 35.5152 103.677 36.6843 103.817 37.9707C104.101 40.564 104.307 43.929 104.426 47.4375C104.66 54.3686 104.571 62.3128 103.957 66.1953C103.555 68.7391 102.995 71.1274 102.307 73.3701C100.908 73.1272 99.4686 73 98 73C97.3584 73 96.7223 73.0228 96.0928 73.0703C96.9235 70.6778 97.5843 68.0799 98.0303 65.2588C98.5443 62.0075 98.6638 54.5867 98.4287 47.6406C98.3126 44.2109 98.1144 41.0091 97.8535 38.6221C97.722 37.4185 97.5819 36.4928 97.4463 35.873C97.4403 35.8455 97.4335 35.8191 97.4277 35.7939C94.8324 34.0641 90.021 31.9206 84.0059 29.7979C77.8051 27.6096 70.6463 25.5533 64.044 24.0742C57.4421 25.5532 50.2843 27.6098 44.084 29.7979C38.0689 31.9205 33.2576 34.0641 30.6621 35.7939C30.6564 35.8191 30.6496 35.8454 30.6436 35.873C30.5079 36.4928 30.3679 37.4183 30.2363 38.6221C29.9755 41.0092 29.7763 44.2108 29.6602 47.6406C29.4251 54.5867 29.5446 62.0075 30.0586 65.2588C32.2473 79.103 39.5838 87.5774 47.0166 92.7305C54.1597 97.6826 61.3679 99.5367 64.044 99.9668C65.6837 99.7033 69.0262 98.9035 73.0137 97.1846C73.005 97.4552 73 97.7272 73 98C73 99.8647 73.2056 101.681 73.5928 103.43C69.6028 104.981 66.3048 105.713 64.5645 105.954C64.5577 105.955 64.5508 105.956 64.544 105.957C64.5056 105.962 64.4684 105.97 64.4316 105.975C64.3779 105.982 64.3239 105.987 64.2705 105.991C64.2475 105.993 64.2243 105.994 64.2012 105.995C64.1757 105.996 64.1504 105.998 64.125 105.999H63.9639C63.9369 105.998 63.9099 105.996 63.8828 105.994C63.8616 105.993 63.8404 105.993 63.8193 105.991C63.7658 105.987 63.7121 105.982 63.6582 105.975C63.6225 105.97 63.586 105.963 63.5488 105.958C63.5401 105.957 63.5312 105.956 63.5225 105.954C60.3324 105.512 51.9147 103.427 43.5977 97.6611C35.0699 91.7489 26.6213 81.9361 24.1328 66.1953C23.5191 62.3129 23.4295 54.3687 23.6641 47.4375C23.7828 43.929 23.9881 40.564 24.2715 37.9707C24.4121 36.6843 24.5797 35.5152 24.7822 34.5898C24.882 34.1342 25.0086 33.652 25.1777 33.2119C25.284 32.9354 25.6272 32.0387 26.4697 31.4092C29.678 29.0124 35.5652 26.4421 42.0869 24.1406C48.7217 21.7992 56.3822 19.61 63.4014 18.0693C63.4238 18.0644 63.4464 18.061 63.4688 18.0566C63.4847 18.0535 63.5006 18.0497 63.5166 18.0469C63.5955 18.0327 63.6744 18.0224 63.7529 18.0146C63.776 18.0124 63.7991 18.0105 63.8223 18.0088C63.8965 18.0032 63.9704 18.002 64.044 18.002C64.1175 18.002 64.1914 18.0032 64.2656 18.0088ZM77.7803 48.4814C78.8948 47.2556 80.7926 47.1658 82.0186 48.2803C83.2441 49.3948 83.334 51.2918 82.2197 52.5176L62.2197 74.5176C61.6679 75.1246 60.8914 75.4795 60.0713 75.499C59.2512 75.5185 58.459 75.2011 57.8789 74.6211L45.8789 62.6211C44.7074 61.4496 44.7075 59.5505 45.8789 58.3789C47.0505 57.2073 48.9495 57.2073 50.1211 58.3789L59.8965 68.1533L77.7803 48.4814Z" fill="white"/>
<path d="M94.2572 114.5L86.1497 87.8253H85.9424C85.9731 88.461 86.0192 89.4222 86.0806 90.7091C86.1574 91.9804 86.2265 93.337 86.2879 94.7788C86.3493 96.2207 86.38 97.523 86.38 98.6858V114.5H80V80.4998H89.7198L97.6891 106.5H97.8273L106.28 80.4998H116V114.5H109.344V98.4067C109.344 97.337 109.359 96.1044 109.39 94.7091C109.436 93.3137 109.489 91.9881 109.551 90.7323C109.612 89.461 109.658 88.5075 109.689 87.8718H109.482L100.798 114.5H94.2572Z" fill="white"/>
<defs>
<linearGradient id="paint0_linear_19509_44780" x1="64" y1="0" x2="64" y2="128" gradientUnits="userSpaceOnUse">
<stop stop-color="#14851D"/>
<stop offset="1" stop-color="#006648"/>
</linearGradient>
</defs>
</svg>
